# xmcd
#
# Track frame offsets:
#	150
#	13755
#	27465
#	38538
#	60621
#	74449
#	88124
#	99937
#	111862
#	124261
#	138118
#	149673
#	164111
#	176442
#	189205
#	201004
#	215093
#
# Disc length: 3058 seconds
#
# Revision: 0
# Processed by: cddbd v1.5.1PL0 Copyright (c) Steve Scherf et al.
# Submitted via: dBpowerAMP V4.0
#
DISCID=f80bf011
DTITLE=Tarheel Slim and Little Ann - The Robin and Fire Years
DYEAR=1900
DGENRE=Blues
TTITLE0=Wildcat Tamer
TTITLE1=Number Nine Train
TTITLE2=Lock Me In Your Heart
TTITLE3=Can't Stay Away
TTITLE4=Send Me The Pillow You Dream On
TTITLE5=It's A Sin
TTITLE6=You're Gonna Reap
TTITLE7=Bless You, My Darling
TTITLE8=It's Too Late
TTITLE9=Much Too Late
TTITLE10=Anything For You
TTITLE11=My Kinda Woman
TTITLE12=Too Much Competition
TTITLE13=Don't Ever Leave Me
TTITLE14=Can't Stay Away From You
TTITLE15=I Love You Because
TTITLE16=Forever I'll Be Yours
EXTD=
EXTT0=
EXTT1=
EXTT2=
EXTT3=
EXTT4=
EXTT5=
EXTT6=
EXTT7=
EXTT8=
EXTT9=
EXTT10=
EXTT11=
EXTT12=
EXTT13=
EXTT14=
EXTT15=
EXTT16=
PLAYORDER=
